<svg xmlns="http://www.w3.org/2000/svg" version="1.1" viewBox="-5.0 -10.0 110.0 135.0">
 <path d="m40.898 57.102 21.5-23.301 13.602 14.699 16 17.102v-57.602h-84v69l25.699-27.801 7.1992 7.8984zm51.102 13c-9.8984-10.5-19.699-21.102-29.602-31.699l-19.398 20.898 16.301 17.602h32.699zm0 9.8984h-84v12h84zm-37-3.1016c-7.1016-7.6992-14.199-15.398-21.301-23.102l-21.398 23.102zm-20.5-56.102c-1.6992-1.6992-4.1016-2.8008-6.6992-2.8008-2.6016 0-5 1.1016-6.6992 2.8008-1.6992 1.6992-2.8008 4.1016-2.8008 6.6992 0 2.6016 1.1016 5 2.8008 6.6992 1.6992 1.6992 4.1016 2.8008 6.6992 2.8008 2.6016 0 5-1.1016 6.6992-2.8008 1.6992-1.6992 2.8008-4.1016 2.8008-6.6992 0-2.6016-1.1016-5-2.8008-6.6992zm-6.6992-5.8984c3.5 0 6.6016 1.3984 8.8984 3.6992 2.3008 2.3008 3.6992 5.3984 3.6992 8.8984s-1.3984 6.6016-3.6992 8.8984c-2.3008 2.3008-5.3984 3.6992-8.8984 3.6992s-6.6016-1.3984-8.8984-3.6992c-2.3008-2.3008-3.6992-5.3984-3.6992-8.8984s1.3984-6.6016 3.6992-8.8984c2.3008-2.3008 5.3984-3.6992 8.8984-3.6992z"/>
<text x="0.0" y="117.5" font-size="5.0" font-weight="bold" font-family="Arbeit Regular, Helvetica, Arial-Unicode, Arial, Sans-serif" fill="#000000">Created by Danishicon</text><text x="0.0" y="122.5" font-size="5.0" font-weight="bold" font-family="Arbeit Regular, Helvetica, Arial-Unicode, Arial, Sans-serif" fill="#000000">from Noun Project</text></svg>